<svg width="132" height="42" viewBox="0 0 132 42" fill="none" xmlns="http://www.w3.org/2000/svg">
<path d="M1.45071 0.613525H116.594C124.602 0.613525 131.094 7.1054 131.094 15.1135V41.2875H15.9507C7.94258 41.2875 1.45071 34.7956 1.45071 26.7875V0.613525Z" fill="black" stroke="#ACACAC"/>
<path d="M18.9252 23.9828C22.4383 26.8277 27.4625 26.8277 30.9756 23.9828L29.6173 22.3054C26.8962 24.5089 23.0046 24.5089 20.2835 22.3054L18.9252 23.9828Z" fill="white"/>
<path d="M20.3883 20.2892V17.3733H22.5467V20.2892H20.3883Z" fill="white"/>
<path d="M27.0859 17.3733V20.2892H29.2443V17.3733H27.0859Z" fill="white"/>
<path fill-rule="evenodd" clip-rule="evenodd" d="M36.1959 21.2892C36.1959 27.7267 30.9773 32.9453 24.5398 32.9453C18.1024 32.9453 12.8838 27.7267 12.8838 21.2892C12.8838 14.8518 18.1024 9.63318 24.5398 9.63318C30.9773 9.63318 36.1959 14.8518 36.1959 21.2892ZM34.0375 21.2892C34.0375 26.5346 29.7852 30.7869 24.5398 30.7869C19.2944 30.7869 15.0422 26.5346 15.0422 21.2892C15.0422 16.0438 19.2944 11.7916 24.5398 11.7916C29.7852 11.7916 34.0375 16.0438 34.0375 21.2892Z" fill="white"/>
<path d="M78.2644 7.4234C78.4257 7.68013 78.6031 8.00634 78.7187 8.28909H82.5324V10.0809H81.8177V8.95345H74.6708V10.0809H73.9762V8.28909H77.8297C77.7323 8.06769 77.6158 7.83593 77.4994 7.63479L78.2644 7.4234Z" fill="white"/>
<path d="M75.1741 9.93993C75.9995 9.7688 76.9658 9.51715 77.5295 9.27556L78.0027 9.7688C77.4008 9.9914 76.6032 10.1937 75.8586 10.3426V11.017H77.8215V11.5606H75.8586V12.2451H80.6198V11.5606H78.6972V11.017H80.6198V10.3426H78.516V9.78894H81.3144V12.8088H77.2022C77.0494 13.0364 76.8731 13.2549 76.6786 13.4631H82.2506C82.2506 13.4631 82.2405 13.6644 82.2304 13.765C82.1197 15.5065 81.9989 16.191 81.7573 16.4527C81.5761 16.6339 81.3949 16.6943 81.1131 16.7144C80.8614 16.7345 80.3783 16.7245 79.875 16.7043C79.8649 16.503 79.7844 16.2212 79.6636 16.04C80.1568 16.0803 80.6198 16.0903 80.7809 16.0803C80.9621 16.0903 81.0527 16.0803 81.1332 15.9997C81.2851 15.8389 81.3814 15.3294 81.4716 14.0771H76.0192C75.4347 14.5551 74.7665 14.9551 74.1071 15.2548C74.0165 15.1038 73.795 14.7918 73.6541 14.6509C74.6923 14.2481 75.7304 13.5987 76.3724 12.8088H75.1741V9.93993Z" fill="white"/>
<path d="M74.9426 16.1809C75.3452 15.7279 75.6875 14.973 75.8787 14.3891L76.4827 14.6307C76.2713 15.2347 75.9592 15.9997 75.5566 16.4829L74.9426 16.1809Z" fill="white"/>
<path d="M77.2578 16.3118C77.2578 15.8487 77.1168 15.1139 76.9155 14.5401L77.4994 14.4697C77.7208 15.0334 77.8718 15.7581 77.8718 16.2312L77.2578 16.3118Z" fill="white"/>
<path d="M78.8381 16.1104C78.7576 15.6877 78.4858 15.0334 78.1939 14.5502L78.7375 14.3891C79.0495 14.8723 79.3414 15.5065 79.422 15.9293L78.8381 16.1104Z" fill="white"/>
<path d="M80.3179 15.6675C80.1669 15.3354 79.7944 14.8623 79.4522 14.5301L79.9655 14.2885C80.3078 14.6106 80.6903 15.0736 80.8413 15.3958L80.3179 15.6675Z" fill="white"/>
<path d="M63.4269 12.8289L63.6283 13.5637L63.8159 13.4982C64.1062 13.3968 64.4198 13.2872 64.7456 13.1732V15.8085C64.7456 15.9393 64.6953 15.9796 64.5644 15.9796C64.4536 15.9796 64.0812 15.9796 63.6484 15.9695C63.749 16.1809 63.8497 16.503 63.8799 16.6943C64.4939 16.6943 64.8765 16.6742 65.1281 16.5534C65.3697 16.4326 65.4603 16.2212 65.4603 15.7984V12.9228C65.8159 12.798 66.176 12.6713 66.5273 12.547L66.4166 11.8525C66.0977 11.9636 65.7755 12.0739 65.4603 12.1799V10.2117H66.4166V9.50708H65.4603V7.4838H64.7456V9.50708H63.5779V10.2117H64.7456V12.4167C64.2483 12.5789 63.7927 12.7216 63.4269 12.8289Z" fill="white"/>
<path fill-rule="evenodd" clip-rule="evenodd" d="M67.6547 11.3794C66.9299 11.3794 66.7487 11.1177 66.7487 10.3828V7.89651H69.3861V9.8896H67.3829V10.3929C67.3829 10.705 67.4332 10.7955 67.6547 10.7955H68.9331C69.1143 10.7955 69.3861 10.7855 69.5471 10.7553C69.5537 10.8079 69.5603 10.8712 69.5672 10.9378C69.5815 11.0754 69.5972 11.2274 69.6176 11.329C69.4767 11.3693 69.2149 11.3794 68.9432 11.3794H67.6547ZM67.3829 8.41995H68.772V9.36616H67.3829V8.41995Z" fill="white"/>
<path fill-rule="evenodd" clip-rule="evenodd" d="M70.7249 11.329C70.0102 11.329 69.829 11.0774 69.829 10.3426V7.89651H72.4764V9.8594H70.4631V10.3526C70.4631 10.6546 70.5135 10.7553 70.745 10.7553H72.0838C72.265 10.7553 72.567 10.7351 72.728 10.6949C72.7381 10.8761 72.7683 11.1378 72.7884 11.2787C72.6475 11.329 72.3757 11.329 72.0939 11.329H70.7249ZM70.4631 8.41995H71.8724V9.33596H70.4631V8.41995Z" fill="white"/>
<path d="M68.46 14.8522C67.8963 15.4159 66.9299 15.9393 66.0643 16.2715C66.2354 16.3923 66.5172 16.6339 66.6481 16.7647C67.4936 16.3822 68.5204 15.7481 69.1445 15.1139L68.46 14.8522Z" fill="white"/>
<path d="M70.1008 15.1844C70.8658 15.6575 71.8523 16.352 72.3455 16.7849L72.9696 16.3822C72.4462 15.9393 71.4496 15.275 70.6947 14.822L70.1008 15.1844Z" fill="white"/>
<path d="M51.9516 16.7144C51.2671 16.3319 50.1195 15.8487 48.9821 15.4763L49.4552 14.973C50.5927 15.3354 51.8308 15.8085 52.5656 16.191L51.9516 16.7144Z" fill="white"/>
<path d="M43.3954 16.1809C44.4725 15.9192 45.8213 15.4058 46.4957 14.973L47.1903 15.4159C46.3448 15.9293 44.9959 16.4527 43.9188 16.7345C43.8081 16.5836 43.5564 16.3218 43.3954 16.1809Z" fill="white"/>
<path d="M57.6848 7.70798C57.6863 7.63889 57.6877 7.5735 57.6893 7.514H58.5247L58.5238 7.55759C58.5157 7.91722 58.5048 8.40297 58.4598 8.96851C58.6017 10.1523 59.2146 14.4219 62.8028 16.0199C62.5814 16.191 62.3599 16.4527 62.2492 16.6641C59.7184 15.4818 58.628 12.997 58.1331 11.1161C57.6589 13.131 56.5869 15.384 54.1259 16.7043C53.995 16.503 53.7433 16.2715 53.5118 16.1104C57.5471 14.0686 57.6473 9.44 57.6848 7.70798Z" fill="white"/>
<path fill-rule="evenodd" clip-rule="evenodd" d="M66.789 12.2652V12.9094H68.1379V14.0771H66.3662V14.7213H72.7783V14.0771H71.208V12.9094H72.5468V12.2652H71.208V11.5807H70.5135V12.2652H68.8224V11.6008H68.1379V12.2652H66.789ZM68.8224 14.0771V12.9094H70.5135V14.0771H68.8224Z" fill="white"/>
<path fill-rule="evenodd" clip-rule="evenodd" d="M43.5866 14.8119V14.1677H45.0362V9.61781H47.5728V8.98365H43.8685V8.32935H47.5728V7.49386H48.3177V8.32935H52.2636V8.98365H48.3177V9.61781H51.106V14.1677H52.5253V14.8119H43.5866ZM45.7609 14.1677H50.3511V13.4631H45.7609V14.1677ZM45.7609 12.9799H50.3511V12.3759H45.7609V12.9799ZM45.7609 11.8827H50.3511V11.2888H45.7609V11.8827ZM45.7609 10.8157H50.3511V10.1513H45.7609V10.8157Z" fill="white"/>
<path fill-rule="evenodd" clip-rule="evenodd" d="M106.37 26.2243C106.37 25.968 106.386 25.4072 106.386 25.4072H102.461V23.8852H106.624C106.816 26.1981 107.162 28.4079 107.705 30.2048C106.827 31.1775 105.807 31.9918 104.656 32.6171C105.152 33.0657 106.001 34.043 106.338 34.5397C107.191 34.0018 107.985 33.3611 108.716 32.6292C109.398 33.7849 110.256 34.4756 111.321 34.4756C112.971 34.4756 113.724 33.8027 114.076 30.6784C113.452 30.4381 112.634 29.8934 112.106 29.3486C112.026 31.3033 111.833 32.1044 111.513 32.1044C111.127 32.1044 110.735 31.5693 110.376 30.6641C111.532 29.0504 112.46 27.1566 113.131 25.0547L110.776 24.494C110.46 25.594 110.046 26.6261 109.539 27.5752C109.324 26.4583 109.149 25.2017 109.033 23.8852H113.916V21.594H112.212L113.019 20.7609C112.458 20.2322 111.337 19.5272 110.52 19.0946L109.11 20.4885C109.614 20.7987 110.211 21.2026 110.712 21.594H108.894C108.87 20.8571 108.866 20.1158 108.885 19.383H106.434C106.437 20.1137 106.453 20.854 106.483 21.594H100.009V26.4006C100.009 28.4995 99.9291 31.3353 98.7434 33.2259C99.2722 33.4983 100.33 34.3635 100.73 34.8281C101.547 33.5987 101.991 31.8867 102.225 30.1821C102.543 30.7608 102.782 31.6328 102.813 32.2966C103.55 32.2966 104.223 32.2806 104.656 32.2005C105.136 32.1044 105.505 31.9442 105.857 31.4795C106.242 30.9668 106.322 29.4928 106.37 26.2243ZM102.233 30.1219C102.352 29.2282 102.415 28.338 102.442 27.5221H104.1C104.065 29.1171 104.005 29.778 103.87 29.9735C103.742 30.1337 103.598 30.1818 103.39 30.1818C103.141 30.1818 102.712 30.1667 102.233 30.1219Z" fill="white"/>
<path d="M87.8534 22.1548C88.1184 21.473 88.355 20.7712 88.5535 20.0719L86.1342 19.5272C85.5895 21.6902 84.5641 23.8852 83.3304 25.1989C83.9232 25.5194 84.9646 26.2083 85.4292 26.6089C85.9091 26.0106 86.3817 25.2645 86.8215 24.4299H89.8994V26.8812H85.7497V29.1243H89.8994V31.8801H83.8431V34.1552H98.423V31.8801H92.3347V29.1243H96.933V26.8812H92.3347V24.4299H97.5738V22.1548H92.3347V19.367H89.8994V22.1548H87.8534Z" fill="white"/>
<path d="M48.1931 28.4015C48.2874 27.9727 48.3355 27.5652 48.3487 27.2017H44.6836V25.1028H48.3526V23.5006H44.5234V21.3377H48.3526V19.4471H50.6597V26.9614C50.6597 29.7652 49.7946 32.9215 45.8692 34.8121C45.4847 34.2513 44.7637 33.5303 44.2029 33.0817C45.6189 32.5429 46.5853 31.6677 47.2265 30.7036C46.5004 30.8197 45.7918 30.9316 45.131 31.036L44.251 31.1751L43.8344 28.8519C44.9657 28.7546 46.5494 28.5834 48.1931 28.4015Z" fill="white"/>
<path fill-rule="evenodd" clip-rule="evenodd" d="M73.6125 34.1697L68.5516 19.8789H65.1776L60.0779 34.1697H63.1998L64.1887 31.2321H69.4532L70.3743 34.1697H73.6125ZM66.8355 23.1462L68.6194 28.7695H64.9934L66.8355 23.1462Z" fill="white"/>
<path d="M54.6171 19.4471V21.3377H58.8149V23.5006H54.6171V25.1028H58.4304V27.2017H54.6171V28.8359H59.1033V30.9989H54.6171V34.5878H52.2779V19.4471H54.6171Z" fill="white"/>
<path d="M76.1582 22.3098V31.7422H74.3979V34.1731H80.6803V31.7422H79.125V22.3098H80.6803V19.8789H74.3979V22.3098H76.1582Z" fill="white"/>
</svg>
